<mxfile host="app.diagrams.net" modified="2022-08-31T19:39:45.826Z" agent="5.0 (Windows NT 10.0; Win64; x64) AppleWebKit/537.36 (KHTML, like Gecko) Chrome/104.0.0.0 Safari/537.36" etag="BYIiMRwBg-F7vDBQP6kr" version="20.2.7" type="github">
  <diagram id="U_QRtVnhFSjQWxPb7mOF" name="Page-1">
    <mxGraphModel dx="2688" dy="1109" grid="0" gridSize="10" guides="1" tooltips="1" connect="1" arrows="1" fold="1" page="1" pageScale="1" pageWidth="1654" pageHeight="1169" background="#ffffff" math="0" shadow="0">
      <root>
        <mxCell id="0" />
        <mxCell id="1" parent="0" />
        <mxCell id="69xzvhX7tdtfhZrqi7PH-4" value="&lt;h1&gt;Locker Post Installation Work Flow&lt;br&gt;&lt;/h1&gt;&lt;p&gt;The document is to present the E2E workflow for Locker post installation.&lt;/p&gt;&lt;ul&gt;&lt;li&gt;Color code:&lt;/li&gt;&lt;ul&gt;&lt;li&gt;Green: Partner Operation - Vendor&lt;/li&gt;&lt;li&gt;Blue: Partner Operation - Amazon HQ&lt;br&gt;&lt;/li&gt;&lt;li&gt;Grey: DBs and ICT systems&lt;br&gt;&lt;/li&gt;&lt;li&gt;Orange: AM/BD&lt;/li&gt;&lt;li&gt;Red boxes: Note for SF developer (to be discussed and integrated)&lt;br&gt;&lt;/li&gt;&lt;/ul&gt;&lt;/ul&gt;&lt;p&gt;&lt;/p&gt;" style="text;html=1;strokeColor=none;fillColor=#f5f5f5;spacing=5;spacingTop=-20;whiteSpace=wrap;overflow=hidden;rounded=0;fontColor=#333333;" parent="1" vertex="1">
          <mxGeometry x="-1590" y="65" width="640" height="200" as="geometry" />
        </mxCell>
        <mxCell id="ifxNv4_O12RGbUXrN8wK-2" value="" style="endArrow=none;html=1;fillColor=#dae8fc;strokeColor=#6c8ebf;" parent="1" edge="1">
          <mxGeometry width="50" height="50" relative="1" as="geometry">
            <mxPoint x="-1602" y="281" as="sourcePoint" />
            <mxPoint x="1608" y="281" as="targetPoint" />
          </mxGeometry>
        </mxCell>
        <mxCell id="ifxNv4_O12RGbUXrN8wK-3" value="" style="endArrow=none;html=1;fillColor=#dae8fc;strokeColor=#6c8ebf;" parent="1" source="ec2KHH7Mb9NU5PzLNCFB-45" edge="1">
          <mxGeometry width="50" height="50" relative="1" as="geometry">
            <mxPoint x="-1600" y="442" as="sourcePoint" />
            <mxPoint x="1640" y="442" as="targetPoint" />
          </mxGeometry>
        </mxCell>
        <mxCell id="ifxNv4_O12RGbUXrN8wK-4" value="" style="endArrow=none;html=1;fillColor=#ffe6cc;strokeColor=#d79b00;" parent="1" edge="1">
          <mxGeometry width="50" height="50" relative="1" as="geometry">
            <mxPoint x="-1600" y="780" as="sourcePoint" />
            <mxPoint x="880" y="780" as="targetPoint" />
          </mxGeometry>
        </mxCell>
        <mxCell id="ifxNv4_O12RGbUXrN8wK-14" style="edgeStyle=none;rounded=0;orthogonalLoop=1;jettySize=auto;html=1;entryX=0.5;entryY=0;entryDx=0;entryDy=0;" parent="1" source="ifxNv4_O12RGbUXrN8wK-6" target="ifxNv4_O12RGbUXrN8wK-7" edge="1">
          <mxGeometry relative="1" as="geometry" />
        </mxCell>
        <mxCell id="ifxNv4_O12RGbUXrN8wK-6" value="&lt;div&gt;SF&lt;/div&gt;&lt;div&gt;Case / Account&lt;/div&gt;" style="strokeWidth=2;html=1;shape=mxgraph.flowchart.database;whiteSpace=wrap;fillColor=#f5f5f5;strokeColor=#666666;fontColor=#333333;" parent="1" vertex="1">
          <mxGeometry x="-780" y="327.5" width="60" height="72.5" as="geometry" />
        </mxCell>
        <mxCell id="ifxNv4_O12RGbUXrN8wK-13" style="edgeStyle=none;rounded=0;orthogonalLoop=1;jettySize=auto;html=1;exitX=0.5;exitY=0;exitDx=0;exitDy=0;entryX=0.5;entryY=1;entryDx=0;entryDy=0;entryPerimeter=0;" parent="1" source="ifxNv4_O12RGbUXrN8wK-7" target="ifxNv4_O12RGbUXrN8wK-6" edge="1">
          <mxGeometry relative="1" as="geometry" />
        </mxCell>
        <mxCell id="ifxNv4_O12RGbUXrN8wK-20" style="edgeStyle=none;rounded=0;orthogonalLoop=1;jettySize=auto;html=1;exitX=1;exitY=0.5;exitDx=0;exitDy=0;entryX=0;entryY=0.5;entryDx=0;entryDy=0;" parent="1" source="Th_yiaQ7RJOr7t5zxzCg-11" target="Th_yiaQ7RJOr7t5zxzCg-11" edge="1">
          <mxGeometry relative="1" as="geometry">
            <mxPoint x="-596.25" y="866" as="targetPoint" />
          </mxGeometry>
        </mxCell>
        <mxCell id="ec2KHH7Mb9NU5PzLNCFB-7" value="" style="edgeStyle=orthogonalEdgeStyle;rounded=0;orthogonalLoop=1;jettySize=auto;html=1;" parent="1" source="ifxNv4_O12RGbUXrN8wK-7" target="Th_yiaQ7RJOr7t5zxzCg-18" edge="1">
          <mxGeometry relative="1" as="geometry" />
        </mxCell>
        <mxCell id="ifxNv4_O12RGbUXrN8wK-7" value="&lt;div&gt;CCL output analysis&lt;/div&gt;" style="verticalLabelPosition=bottom;verticalAlign=top;html=1;shape=process;whiteSpace=wrap;rounded=1;size=0.14;arcSize=6;fontFamily=Helvetica;fillColor=#fad7ac;strokeColor=#b46504;" parent="1" vertex="1">
          <mxGeometry x="-800" y="828" width="100" height="60" as="geometry" />
        </mxCell>
        <mxCell id="ifxNv4_O12RGbUXrN8wK-15" value="" style="endArrow=none;html=1;fillColor=#ffe6cc;strokeColor=#d79b00;" parent="1" edge="1">
          <mxGeometry width="50" height="50" relative="1" as="geometry">
            <mxPoint x="-1600" y="980" as="sourcePoint" />
            <mxPoint x="1625.7142857142858" y="980" as="targetPoint" />
          </mxGeometry>
        </mxCell>
        <mxCell id="Th_yiaQ7RJOr7t5zxzCg-5" value="" style="edgeStyle=orthogonalEdgeStyle;rounded=0;orthogonalLoop=1;jettySize=auto;html=1;exitX=0.5;exitY=0;exitDx=0;exitDy=0;entryX=0.5;entryY=1;entryDx=0;entryDy=0;" parent="1" source="Th_yiaQ7RJOr7t5zxzCg-11" target="ec2KHH7Mb9NU5PzLNCFB-22" edge="1">
          <mxGeometry relative="1" as="geometry">
            <mxPoint x="-172.25" y="866" as="sourcePoint" />
            <mxPoint x="-92.25" y="866" as="targetPoint" />
          </mxGeometry>
        </mxCell>
        <mxCell id="cHiCR8o6Nzo_LbySITsr-14" style="edgeStyle=orthogonalEdgeStyle;rounded=0;orthogonalLoop=1;jettySize=auto;html=1;exitX=0.5;exitY=0;exitDx=0;exitDy=0;fontFamily=Helvetica;fontSize=14;" parent="1" source="ifxNv4_O12RGbUXrN8wK-23" target="Th_yiaQ7RJOr7t5zxzCg-27" edge="1">
          <mxGeometry relative="1" as="geometry" />
        </mxCell>
        <mxCell id="cHiCR8o6Nzo_LbySITsr-17" value="" style="edgeStyle=orthogonalEdgeStyle;rounded=0;orthogonalLoop=1;jettySize=auto;html=1;fontFamily=Helvetica;fontSize=14;" parent="1" source="ifxNv4_O12RGbUXrN8wK-23" target="cHiCR8o6Nzo_LbySITsr-16" edge="1">
          <mxGeometry relative="1" as="geometry" />
        </mxCell>
        <mxCell id="ifxNv4_O12RGbUXrN8wK-23" value="Survey based pre-check" style="rounded=1;whiteSpace=wrap;html=1;absoluteArcSize=1;arcSize=14;strokeWidth=2;fillColor=#dae8fc;strokeColor=#6c8ebf;" parent="1" vertex="1">
          <mxGeometry x="167" y="482" width="98" height="80" as="geometry" />
        </mxCell>
        <mxCell id="cHiCR8o6Nzo_LbySITsr-18" style="edgeStyle=orthogonalEdgeStyle;rounded=0;orthogonalLoop=1;jettySize=auto;html=1;exitX=1;exitY=0.5;exitDx=0;exitDy=0;entryX=0;entryY=0.5;entryDx=0;entryDy=0;entryPerimeter=0;fontFamily=Helvetica;fontSize=14;" parent="1" source="cHiCR8o6Nzo_LbySITsr-16" target="Th_yiaQ7RJOr7t5zxzCg-31" edge="1">
          <mxGeometry relative="1" as="geometry" />
        </mxCell>
        <mxCell id="cHiCR8o6Nzo_LbySITsr-16" value="Upsize/Moove remote feasibility check" style="rounded=1;whiteSpace=wrap;html=1;absoluteArcSize=1;arcSize=14;strokeWidth=2;fillColor=#dae8fc;strokeColor=#6c8ebf;" parent="1" vertex="1">
          <mxGeometry x="167" y="632" width="98" height="80" as="geometry" />
        </mxCell>
        <mxCell id="ifxNv4_O12RGbUXrN8wK-30" style="edgeStyle=none;rounded=0;orthogonalLoop=1;jettySize=auto;html=1;exitX=1;exitY=0.5;exitDx=0;exitDy=0;exitPerimeter=0;entryX=0;entryY=0.5;entryDx=0;entryDy=0;" parent="1" source="ifxNv4_O12RGbUXrN8wK-28" target="ifxNv4_O12RGbUXrN8wK-29" edge="1">
          <mxGeometry relative="1" as="geometry" />
        </mxCell>
        <mxCell id="ifxNv4_O12RGbUXrN8wK-28" value="Campus_Det1" style="strokeWidth=2;html=1;shape=mxgraph.flowchart.database;whiteSpace=wrap;fillColor=#647687;strokeColor=#314354;fontFamily=Helvetica;fontColor=#ffffff;" parent="1" vertex="1">
          <mxGeometry x="-1400" y="317" width="108" height="75" as="geometry" />
        </mxCell>
        <mxCell id="ifxNv4_O12RGbUXrN8wK-31" style="edgeStyle=none;rounded=0;orthogonalLoop=1;jettySize=auto;html=1;exitX=1;exitY=0.5;exitDx=0;exitDy=0;entryX=0;entryY=0.5;entryDx=0;entryDy=0;entryPerimeter=0;" parent="1" source="ifxNv4_O12RGbUXrN8wK-29" target="ifxNv4_O12RGbUXrN8wK-37" edge="1">
          <mxGeometry relative="1" as="geometry">
            <mxPoint x="-1095" y="357" as="targetPoint" />
          </mxGeometry>
        </mxCell>
        <mxCell id="ifxNv4_O12RGbUXrN8wK-32" style="edgeStyle=none;rounded=0;orthogonalLoop=1;jettySize=auto;html=1;exitX=0;exitY=0.5;exitDx=0;exitDy=0;" parent="1" source="ifxNv4_O12RGbUXrN8wK-29" target="ifxNv4_O12RGbUXrN8wK-28" edge="1">
          <mxGeometry relative="1" as="geometry" />
        </mxCell>
        <mxCell id="ifxNv4_O12RGbUXrN8wK-29" value="&lt;div&gt;&lt;font color=&quot;#190033&quot;&gt;Data grinding / Metric Analysis&lt;/font&gt;&lt;/div&gt;&lt;div&gt;&lt;font color=&quot;#190033&quot;&gt;&lt;br&gt;&lt;/font&gt;&lt;/div&gt;" style="verticalLabelPosition=bottom;verticalAlign=top;html=1;shape=process;whiteSpace=wrap;rounded=1;size=0.14;arcSize=6;fillColor=#647687;strokeColor=#314354;fontFamily=Helvetica;fontColor=#ffffff;" parent="1" vertex="1">
          <mxGeometry x="-1210" y="324.5" width="100" height="60" as="geometry" />
        </mxCell>
        <mxCell id="cHiCR8o6Nzo_LbySITsr-1" style="edgeStyle=orthogonalEdgeStyle;rounded=0;orthogonalLoop=1;jettySize=auto;html=1;exitX=1;exitY=0.5;exitDx=0;exitDy=0;exitPerimeter=0;entryX=0;entryY=0.5;entryDx=0;entryDy=0;fontSize=14;" parent="1" source="ifxNv4_O12RGbUXrN8wK-37" target="ifxNv4_O12RGbUXrN8wK-7" edge="1">
          <mxGeometry relative="1" as="geometry" />
        </mxCell>
        <mxCell id="ifxNv4_O12RGbUXrN8wK-37" value="&lt;div&gt;CCL candidates&lt;/div&gt;" style="strokeWidth=2;html=1;shape=mxgraph.flowchart.document2;whiteSpace=wrap;size=0.25;fontFamily=Helvetica;fillColor=#f5f5f5;strokeColor=#666666;fontColor=#333333;" parent="1" vertex="1">
          <mxGeometry x="-1020" y="324.5" width="110" height="60" as="geometry" />
        </mxCell>
        <mxCell id="Th_yiaQ7RJOr7t5zxzCg-1" value="" style="endArrow=none;html=1;fillColor=#ffe6cc;strokeColor=#d79b00;" parent="1" edge="1">
          <mxGeometry width="50" height="50" relative="1" as="geometry">
            <mxPoint x="-780" y="780.0000000000002" as="sourcePoint" />
            <mxPoint x="1622" y="780" as="targetPoint" />
          </mxGeometry>
        </mxCell>
        <mxCell id="Th_yiaQ7RJOr7t5zxzCg-15" style="edgeStyle=orthogonalEdgeStyle;rounded=0;orthogonalLoop=1;jettySize=auto;html=1;entryX=0;entryY=0.5;entryDx=0;entryDy=0;" parent="1" target="Th_yiaQ7RJOr7t5zxzCg-10" edge="1">
          <mxGeometry relative="1" as="geometry">
            <mxPoint x="-196.25" y="368" as="sourcePoint" />
          </mxGeometry>
        </mxCell>
        <mxCell id="cHiCR8o6Nzo_LbySITsr-13" style="edgeStyle=orthogonalEdgeStyle;rounded=0;orthogonalLoop=1;jettySize=auto;html=1;exitX=1;exitY=0.5;exitDx=0;exitDy=0;exitPerimeter=0;entryX=0;entryY=0.5;entryDx=0;entryDy=0;fontFamily=Helvetica;fontSize=14;" parent="1" source="Th_yiaQ7RJOr7t5zxzCg-9" target="ifxNv4_O12RGbUXrN8wK-23" edge="1">
          <mxGeometry relative="1" as="geometry" />
        </mxCell>
        <mxCell id="Th_yiaQ7RJOr7t5zxzCg-9" value="Post Installation req." style="strokeWidth=2;html=1;shape=mxgraph.flowchart.document2;whiteSpace=wrap;size=0.25;fillColor=#f5f5f5;strokeColor=#666666;fontColor=#333333;" parent="1" vertex="1">
          <mxGeometry x="-118" y="492" width="100" height="60" as="geometry" />
        </mxCell>
        <mxCell id="Th_yiaQ7RJOr7t5zxzCg-16" style="edgeStyle=orthogonalEdgeStyle;rounded=0;orthogonalLoop=1;jettySize=auto;html=1;exitX=0.5;exitY=1;exitDx=0;exitDy=0;entryX=0.5;entryY=0;entryDx=0;entryDy=0;entryPerimeter=0;" parent="1" source="Th_yiaQ7RJOr7t5zxzCg-10" target="Th_yiaQ7RJOr7t5zxzCg-9" edge="1">
          <mxGeometry relative="1" as="geometry" />
        </mxCell>
        <mxCell id="Th_yiaQ7RJOr7t5zxzCg-10" value="Post Installation &lt;br&gt;req." style="shape=parallelogram;html=1;strokeWidth=2;perimeter=parallelogramPerimeter;whiteSpace=wrap;rounded=1;arcSize=12;size=0.23;fillColor=#f5f5f5;strokeColor=#666666;fontColor=#333333;" parent="1" vertex="1">
          <mxGeometry x="-131" y="338" width="126" height="60" as="geometry" />
        </mxCell>
        <mxCell id="Th_yiaQ7RJOr7t5zxzCg-11" value="&lt;div&gt;CCL&lt;/div&gt;&lt;div&gt;to&lt;/div&gt;&lt;div&gt;Upsize&lt;/div&gt;" style="shape=parallelogram;html=1;strokeWidth=2;perimeter=parallelogramPerimeter;whiteSpace=wrap;rounded=1;arcSize=7;size=0.23;fillColor=#f5f5f5;strokeColor=#666666;fontColor=#333333;" parent="1" vertex="1">
          <mxGeometry x="-286.25" y="912.5" width="110" height="62" as="geometry" />
        </mxCell>
        <mxCell id="Th_yiaQ7RJOr7t5zxzCg-20" style="edgeStyle=orthogonalEdgeStyle;rounded=0;orthogonalLoop=1;jettySize=auto;html=1;exitX=1;exitY=0.5;exitDx=0;exitDy=0;entryX=0;entryY=0.5;entryDx=0;entryDy=0;entryPerimeter=0;" parent="1" source="Th_yiaQ7RJOr7t5zxzCg-18" target="Th_yiaQ7RJOr7t5zxzCg-21" edge="1">
          <mxGeometry relative="1" as="geometry">
            <mxPoint x="-350" y="858" as="targetPoint" />
          </mxGeometry>
        </mxCell>
        <mxCell id="Th_yiaQ7RJOr7t5zxzCg-18" value="Direct Check with the host" style="rounded=1;whiteSpace=wrap;html=1;absoluteArcSize=1;arcSize=14;strokeWidth=2;fillColor=#ffe6cc;strokeColor=#d79b00;fontFamily=Helvetica;" parent="1" vertex="1">
          <mxGeometry x="-600" y="828" width="75" height="60" as="geometry" />
        </mxCell>
        <mxCell id="Th_yiaQ7RJOr7t5zxzCg-25" style="edgeStyle=orthogonalEdgeStyle;rounded=0;orthogonalLoop=1;jettySize=auto;html=1;exitX=0.5;exitY=0;exitDx=0;exitDy=0;exitPerimeter=0;entryX=0.5;entryY=1;entryDx=0;entryDy=0;" parent="1" source="Th_yiaQ7RJOr7t5zxzCg-21" target="ec2KHH7Mb9NU5PzLNCFB-12" edge="1">
          <mxGeometry relative="1" as="geometry">
            <mxPoint x="-335.25" y="982.5" as="sourcePoint" />
            <mxPoint x="-401.25" y="955.5" as="targetPoint" />
          </mxGeometry>
        </mxCell>
        <mxCell id="cHiCR8o6Nzo_LbySITsr-9" style="edgeStyle=orthogonalEdgeStyle;rounded=0;orthogonalLoop=1;jettySize=auto;html=1;exitX=1;exitY=0.5;exitDx=0;exitDy=0;exitPerimeter=0;entryX=0;entryY=0.5;entryDx=0;entryDy=0;fontFamily=Helvetica;fontSize=14;" parent="1" source="Th_yiaQ7RJOr7t5zxzCg-21" target="Th_yiaQ7RJOr7t5zxzCg-11" edge="1">
          <mxGeometry relative="1" as="geometry" />
        </mxCell>
        <mxCell id="Th_yiaQ7RJOr7t5zxzCg-21" value="Willing to upsize?" style="strokeWidth=2;html=1;shape=mxgraph.flowchart.decision;whiteSpace=wrap;fillColor=#ffe6cc;strokeColor=#d79b00;" parent="1" vertex="1">
          <mxGeometry x="-441.25" y="906" width="80" height="75" as="geometry" />
        </mxCell>
        <mxCell id="cHiCR8o6Nzo_LbySITsr-50" style="edgeStyle=orthogonalEdgeStyle;rounded=0;orthogonalLoop=1;jettySize=auto;html=1;exitX=0.5;exitY=1;exitDx=0;exitDy=0;exitPerimeter=0;fontFamily=Helvetica;fontSize=14;" parent="1" source="Th_yiaQ7RJOr7t5zxzCg-27" edge="1">
          <mxGeometry relative="1" as="geometry">
            <mxPoint x="216.33333333333348" y="470" as="targetPoint" />
          </mxGeometry>
        </mxCell>
        <mxCell id="Th_yiaQ7RJOr7t5zxzCg-27" value="&lt;div&gt;SF (Survey)&lt;br&gt;&lt;/div&gt;" style="strokeWidth=2;html=1;shape=mxgraph.flowchart.database;whiteSpace=wrap;fillColor=#f5f5f5;strokeColor=#666666;fontColor=#333333;" parent="1" vertex="1">
          <mxGeometry x="171" y="322" width="90" height="70" as="geometry" />
        </mxCell>
        <mxCell id="cHiCR8o6Nzo_LbySITsr-19" style="edgeStyle=orthogonalEdgeStyle;rounded=0;orthogonalLoop=1;jettySize=auto;html=1;exitX=0.5;exitY=0;exitDx=0;exitDy=0;exitPerimeter=0;entryX=0.5;entryY=1;entryDx=0;entryDy=0;fontFamily=Helvetica;fontSize=14;" parent="1" source="Th_yiaQ7RJOr7t5zxzCg-31" target="Th_yiaQ7RJOr7t5zxzCg-33" edge="1">
          <mxGeometry relative="1" as="geometry" />
        </mxCell>
        <mxCell id="cHiCR8o6Nzo_LbySITsr-27" style="edgeStyle=orthogonalEdgeStyle;rounded=0;orthogonalLoop=1;jettySize=auto;html=1;exitX=1;exitY=0.5;exitDx=0;exitDy=0;exitPerimeter=0;entryX=0;entryY=0.5;entryDx=0;entryDy=0;fontFamily=Helvetica;fontSize=14;" parent="1" source="Th_yiaQ7RJOr7t5zxzCg-31" target="cHiCR8o6Nzo_LbySITsr-26" edge="1">
          <mxGeometry relative="1" as="geometry" />
        </mxCell>
        <mxCell id="Th_yiaQ7RJOr7t5zxzCg-31" value="Any macro constraint?" style="strokeWidth=2;html=1;shape=mxgraph.flowchart.decision;whiteSpace=wrap;fillColor=#dae8fc;strokeColor=#6c8ebf;" parent="1" vertex="1">
          <mxGeometry x="357" y="634.5" width="80" height="75" as="geometry" />
        </mxCell>
        <mxCell id="cHiCR8o6Nzo_LbySITsr-21" value="" style="edgeStyle=orthogonalEdgeStyle;rounded=0;orthogonalLoop=1;jettySize=auto;html=1;fontFamily=Helvetica;fontSize=14;" parent="1" source="Th_yiaQ7RJOr7t5zxzCg-33" target="cHiCR8o6Nzo_LbySITsr-20" edge="1">
          <mxGeometry relative="1" as="geometry" />
        </mxCell>
        <mxCell id="Th_yiaQ7RJOr7t5zxzCg-33" value="Informing the host" style="rounded=1;whiteSpace=wrap;html=1;absoluteArcSize=1;arcSize=14;strokeWidth=2;fillColor=#dae8fc;strokeColor=#6c8ebf;" parent="1" vertex="1">
          <mxGeometry x="347.5" y="477" width="99" height="73" as="geometry" />
        </mxCell>
        <mxCell id="cHiCR8o6Nzo_LbySITsr-22" style="edgeStyle=orthogonalEdgeStyle;rounded=0;orthogonalLoop=1;jettySize=auto;html=1;exitX=0.5;exitY=0;exitDx=0;exitDy=0;entryX=0.5;entryY=1;entryDx=0;entryDy=0;entryPerimeter=0;fontFamily=Helvetica;fontSize=14;" parent="1" source="cHiCR8o6Nzo_LbySITsr-20" target="ec2KHH7Mb9NU5PzLNCFB-28" edge="1">
          <mxGeometry relative="1" as="geometry" />
        </mxCell>
        <mxCell id="cHiCR8o6Nzo_LbySITsr-20" value="Updating SF Case" style="rounded=1;whiteSpace=wrap;html=1;absoluteArcSize=1;arcSize=14;strokeWidth=2;fillColor=#dae8fc;strokeColor=#6c8ebf;" parent="1" vertex="1">
          <mxGeometry x="673.5" y="477" width="99" height="73" as="geometry" />
        </mxCell>
        <mxCell id="ec2KHH7Mb9NU5PzLNCFB-2" value="AM/BD" style="text;html=1;strokeColor=none;fillColor=#fff2cc;align=center;verticalAlign=middle;whiteSpace=wrap;rounded=0;rotation=-90;fontSize=14;fontStyle=1" parent="1" vertex="1">
          <mxGeometry x="-1579.5" y="860" width="90" height="50" as="geometry" />
        </mxCell>
        <mxCell id="ec2KHH7Mb9NU5PzLNCFB-3" value="DBs" style="text;html=1;strokeColor=none;fillColor=#f5f5f5;align=center;verticalAlign=middle;whiteSpace=wrap;rounded=0;rotation=-90;fontColor=#333333;fontSize=14;fontStyle=1" parent="1" vertex="1">
          <mxGeometry x="-1579.5" y="327.5" width="91" height="50" as="geometry" />
        </mxCell>
        <mxCell id="ec2KHH7Mb9NU5PzLNCFB-9" value="Yes" style="text;html=1;strokeColor=none;fillColor=none;align=center;verticalAlign=middle;whiteSpace=wrap;rounded=0;" parent="1" vertex="1">
          <mxGeometry x="-361.25" y="944.5" width="40" height="30" as="geometry" />
        </mxCell>
        <mxCell id="ec2KHH7Mb9NU5PzLNCFB-10" value="No" style="text;html=1;strokeColor=none;fillColor=none;align=center;verticalAlign=middle;whiteSpace=wrap;rounded=0;" parent="1" vertex="1">
          <mxGeometry x="-401.25" y="883.5" width="40" height="30" as="geometry" />
        </mxCell>
        <mxCell id="cHiCR8o6Nzo_LbySITsr-11" style="edgeStyle=orthogonalEdgeStyle;rounded=0;orthogonalLoop=1;jettySize=auto;html=1;exitX=0.5;exitY=0;exitDx=0;exitDy=0;entryX=0;entryY=0.5;entryDx=0;entryDy=0;entryPerimeter=0;fontFamily=Helvetica;fontSize=14;" parent="1" source="ec2KHH7Mb9NU5PzLNCFB-12" target="cHiCR8o6Nzo_LbySITsr-5" edge="1">
          <mxGeometry relative="1" as="geometry" />
        </mxCell>
        <mxCell id="ec2KHH7Mb9NU5PzLNCFB-12" value="Updating the info in SF" style="rounded=1;whiteSpace=wrap;html=1;absoluteArcSize=1;arcSize=14;strokeWidth=2;fillColor=#ffe6cc;strokeColor=#d79b00;" parent="1" vertex="1">
          <mxGeometry x="-445" y="808" width="87.5" height="60" as="geometry" />
        </mxCell>
        <mxCell id="cHiCR8o6Nzo_LbySITsr-12" style="edgeStyle=orthogonalEdgeStyle;rounded=0;orthogonalLoop=1;jettySize=auto;html=1;exitX=0.5;exitY=0;exitDx=0;exitDy=0;fontFamily=Helvetica;fontSize=14;" parent="1" source="ec2KHH7Mb9NU5PzLNCFB-22" target="cHiCR8o6Nzo_LbySITsr-5" edge="1">
          <mxGeometry relative="1" as="geometry" />
        </mxCell>
        <mxCell id="ec2KHH7Mb9NU5PzLNCFB-22" value="Updating SF Case" style="rounded=1;whiteSpace=wrap;html=1;absoluteArcSize=1;arcSize=14;strokeWidth=2;fillColor=#ffe6cc;strokeColor=#d79b00;" parent="1" vertex="1">
          <mxGeometry x="-275" y="808" width="87.5" height="60" as="geometry" />
        </mxCell>
        <mxCell id="ec2KHH7Mb9NU5PzLNCFB-41" style="edgeStyle=orthogonalEdgeStyle;rounded=0;orthogonalLoop=1;jettySize=auto;html=1;fontSize=13;entryX=0.5;entryY=0;entryDx=0;entryDy=0;entryPerimeter=0;" parent="1" source="ec2KHH7Mb9NU5PzLNCFB-28" target="ec2KHH7Mb9NU5PzLNCFB-45" edge="1">
          <mxGeometry relative="1" as="geometry">
            <mxPoint x="1311" y="512" as="targetPoint" />
          </mxGeometry>
        </mxCell>
        <mxCell id="cHiCR8o6Nzo_LbySITsr-33" style="edgeStyle=orthogonalEdgeStyle;rounded=0;orthogonalLoop=1;jettySize=auto;html=1;exitX=1;exitY=0.5;exitDx=0;exitDy=0;exitPerimeter=0;fontFamily=Helvetica;fontSize=14;" parent="1" source="ec2KHH7Mb9NU5PzLNCFB-28" target="cHiCR8o6Nzo_LbySITsr-25" edge="1">
          <mxGeometry relative="1" as="geometry" />
        </mxCell>
        <mxCell id="ec2KHH7Mb9NU5PzLNCFB-28" value="&lt;div&gt;SF&lt;/div&gt;&lt;div&gt;Case&lt;br&gt;&lt;/div&gt;" style="strokeWidth=2;html=1;shape=mxgraph.flowchart.database;whiteSpace=wrap;fillColor=#f5f5f5;strokeColor=#666666;fontColor=#333333;" parent="1" vertex="1">
          <mxGeometry x="693" y="324.5" width="60" height="70" as="geometry" />
        </mxCell>
        <mxCell id="ec2KHH7Mb9NU5PzLNCFB-31" value="Yes" style="text;html=1;strokeColor=none;fillColor=none;align=center;verticalAlign=middle;whiteSpace=wrap;rounded=0;" parent="1" vertex="1">
          <mxGeometry x="347.5" y="604.5" width="40" height="30" as="geometry" />
        </mxCell>
        <mxCell id="ec2KHH7Mb9NU5PzLNCFB-32" value="No" style="text;html=1;strokeColor=none;fillColor=none;align=center;verticalAlign=middle;whiteSpace=wrap;rounded=0;" parent="1" vertex="1">
          <mxGeometry x="437" y="682" width="40" height="30" as="geometry" />
        </mxCell>
        <mxCell id="ec2KHH7Mb9NU5PzLNCFB-38" value="&lt;div&gt;Selected vendor; Service type requested (Upsize evaluation, Downsize evaluation, Moving outdoor assessment).&lt;br&gt;&lt;/div&gt;&lt;div&gt;Adding text notes to integrate the request (e.g. + xx modules). &lt;br&gt;&lt;/div&gt;&lt;div&gt;&lt;br&gt;&lt;/div&gt;" style="text;html=1;strokeColor=none;fillColor=none;spacing=10;spacingTop=0;whiteSpace=wrap;overflow=hidden;rounded=0;align=left;fontSize=13;textDirection=ltr;" parent="1" vertex="1">
          <mxGeometry x="480" y="709.5" width="400" height="81.5" as="geometry" />
        </mxCell>
        <mxCell id="cHiCR8o6Nzo_LbySITsr-38" style="edgeStyle=orthogonalEdgeStyle;rounded=0;orthogonalLoop=1;jettySize=auto;html=1;exitX=1;exitY=0.5;exitDx=0;exitDy=0;entryX=0;entryY=0.5;entryDx=0;entryDy=0;fontFamily=Helvetica;fontSize=14;" parent="1" source="ec2KHH7Mb9NU5PzLNCFB-42" target="jZg2GTTka_0QSkcgDUEZ-21" edge="1">
          <mxGeometry relative="1" as="geometry" />
        </mxCell>
        <mxCell id="ec2KHH7Mb9NU5PzLNCFB-42" value="Receive the report from " style="rounded=1;whiteSpace=wrap;html=1;absoluteArcSize=1;arcSize=14;strokeWidth=2;fillColor=#d5e8d4;strokeColor=#82b366;" parent="1" vertex="1">
          <mxGeometry x="979.86" y="642.5" width="99" height="50" as="geometry" />
        </mxCell>
        <mxCell id="jZg2GTTka_0QSkcgDUEZ-1" style="edgeStyle=orthogonalEdgeStyle;rounded=0;orthogonalLoop=1;jettySize=auto;html=1;entryX=0;entryY=0.5;entryDx=0;entryDy=0;entryPerimeter=0;exitX=1;exitY=0.5;exitDx=0;exitDy=0;" parent="1" source="jZg2GTTka_0QSkcgDUEZ-21" target="jZg2GTTka_0QSkcgDUEZ-2" edge="1">
          <mxGeometry relative="1" as="geometry">
            <mxPoint x="1411" y="564" as="targetPoint" />
            <mxPoint x="1358" y="564" as="sourcePoint" />
          </mxGeometry>
        </mxCell>
        <mxCell id="cHiCR8o6Nzo_LbySITsr-41" style="edgeStyle=orthogonalEdgeStyle;rounded=0;orthogonalLoop=1;jettySize=auto;html=1;exitX=0.5;exitY=0;exitDx=0;exitDy=0;exitPerimeter=0;entryX=0.5;entryY=1;entryDx=0;entryDy=0;fontFamily=Helvetica;fontSize=14;" parent="1" source="jZg2GTTka_0QSkcgDUEZ-2" target="cHiCR8o6Nzo_LbySITsr-40" edge="1">
          <mxGeometry relative="1" as="geometry" />
        </mxCell>
        <mxCell id="cHiCR8o6Nzo_LbySITsr-48" style="edgeStyle=orthogonalEdgeStyle;rounded=0;orthogonalLoop=1;jettySize=auto;html=1;exitX=1;exitY=0.5;exitDx=0;exitDy=0;exitPerimeter=0;entryX=0;entryY=0.5;entryDx=0;entryDy=0;fontFamily=Helvetica;fontSize=14;" parent="1" source="jZg2GTTka_0QSkcgDUEZ-2" target="jZg2GTTka_0QSkcgDUEZ-20" edge="1">
          <mxGeometry relative="1" as="geometry" />
        </mxCell>
        <mxCell id="jZg2GTTka_0QSkcgDUEZ-2" value="Is the upsizing feasible?" style="strokeWidth=2;html=1;shape=mxgraph.flowchart.decision;whiteSpace=wrap;fillColor=#d5e8d4;strokeColor=#82b366;" parent="1" vertex="1">
          <mxGeometry x="1355" y="630" width="80" height="75" as="geometry" />
        </mxCell>
        <mxCell id="jZg2GTTka_0QSkcgDUEZ-4" value="Yes" style="text;html=1;strokeColor=none;fillColor=none;align=center;verticalAlign=middle;whiteSpace=wrap;rounded=0;" parent="1" vertex="1">
          <mxGeometry x="1422" y="679.5" width="40" height="30" as="geometry" />
        </mxCell>
        <mxCell id="jZg2GTTka_0QSkcgDUEZ-5" value="No" style="text;html=1;strokeColor=none;fillColor=none;align=center;verticalAlign=middle;whiteSpace=wrap;rounded=0;" parent="1" vertex="1">
          <mxGeometry x="1330" y="609" width="40" height="30" as="geometry" />
        </mxCell>
        <mxCell id="jZg2GTTka_0QSkcgDUEZ-12" value="TCorp" style="strokeWidth=2;html=1;shape=mxgraph.flowchart.database;whiteSpace=wrap;fillColor=#f5f5f5;strokeColor=#666666;fontColor=#333333;" parent="1" vertex="1">
          <mxGeometry x="1322" y="314" width="60" height="70" as="geometry" />
        </mxCell>
        <mxCell id="cHiCR8o6Nzo_LbySITsr-49" style="edgeStyle=orthogonalEdgeStyle;rounded=0;orthogonalLoop=1;jettySize=auto;html=1;exitX=0.5;exitY=0;exitDx=0;exitDy=0;entryX=0;entryY=0.5;entryDx=0;entryDy=0;entryPerimeter=0;fontFamily=Helvetica;fontSize=14;" parent="1" source="jZg2GTTka_0QSkcgDUEZ-20" target="cHiCR8o6Nzo_LbySITsr-45" edge="1">
          <mxGeometry relative="1" as="geometry">
            <Array as="points">
              <mxPoint x="1580" y="460" />
              <mxPoint x="1447" y="460" />
            </Array>
          </mxGeometry>
        </mxCell>
        <mxCell id="jZg2GTTka_0QSkcgDUEZ-20" value="Locker up-sizing" style="verticalLabelPosition=bottom;verticalAlign=top;html=1;shape=process;whiteSpace=wrap;rounded=1;size=0.14;arcSize=6;fillColor=#d5e8d4;strokeColor=#82b366;" parent="1" vertex="1">
          <mxGeometry x="1530" y="637.5" width="100" height="60" as="geometry" />
        </mxCell>
        <mxCell id="jZg2GTTka_0QSkcgDUEZ-21" value="Site survey" style="verticalLabelPosition=bottom;verticalAlign=top;html=1;shape=process;whiteSpace=wrap;rounded=1;size=0.14;arcSize=6;fillColor=#d5e8d4;strokeColor=#82b366;" parent="1" vertex="1">
          <mxGeometry x="1160" y="637.5" width="100" height="60" as="geometry" />
        </mxCell>
        <mxCell id="cHiCR8o6Nzo_LbySITsr-4" value="Checking if the host is willing to upsize / moove outdoor the locker." style="text;html=1;strokeColor=none;fillColor=none;align=left;verticalAlign=middle;whiteSpace=wrap;rounded=0;fontFamily=Helvetica;fontSize=12;" parent="1" vertex="1">
          <mxGeometry x="-629" y="895" width="140" height="60" as="geometry" />
        </mxCell>
        <mxCell id="cHiCR8o6Nzo_LbySITsr-5" value="&lt;div&gt;&lt;br&gt;&lt;/div&gt;&lt;div&gt;SF&lt;/div&gt;&lt;div&gt;Case / Account&lt;/div&gt;" style="strokeWidth=2;html=1;shape=mxgraph.flowchart.database;whiteSpace=wrap;fillColor=#f5f5f5;strokeColor=#666666;fontColor=#333333;" parent="1" vertex="1">
          <mxGeometry x="-275" y="338" width="87.5" height="60" as="geometry" />
        </mxCell>
        <mxCell id="cHiCR8o6Nzo_LbySITsr-36" style="edgeStyle=orthogonalEdgeStyle;rounded=0;orthogonalLoop=1;jettySize=auto;html=1;exitX=0.5;exitY=0;exitDx=0;exitDy=0;exitPerimeter=0;entryX=0;entryY=0.5;entryDx=0;entryDy=0;fontFamily=Helvetica;fontSize=14;" parent="1" source="ec2KHH7Mb9NU5PzLNCFB-45" target="ec2KHH7Mb9NU5PzLNCFB-42" edge="1">
          <mxGeometry relative="1" as="geometry">
            <Array as="points">
              <mxPoint x="892" y="667" />
            </Array>
          </mxGeometry>
        </mxCell>
        <mxCell id="ec2KHH7Mb9NU5PzLNCFB-45" value="TT to Vendor" style="strokeWidth=2;html=1;shape=mxgraph.flowchart.document2;whiteSpace=wrap;size=0.25;fontSize=13;align=center;fillColor=#FF3333;" parent="1" vertex="1">
          <mxGeometry x="842" y="417" width="100" height="60" as="geometry" />
        </mxCell>
        <mxCell id="cHiCR8o6Nzo_LbySITsr-24" value="" style="endArrow=none;html=1;fillColor=#dae8fc;strokeColor=#6c8ebf;" parent="1" target="ec2KHH7Mb9NU5PzLNCFB-45" edge="1">
          <mxGeometry width="50" height="50" relative="1" as="geometry">
            <mxPoint x="-1600" y="442" as="sourcePoint" />
            <mxPoint x="2520" y="442" as="targetPoint" />
          </mxGeometry>
        </mxCell>
        <mxCell id="cHiCR8o6Nzo_LbySITsr-37" style="edgeStyle=orthogonalEdgeStyle;rounded=0;orthogonalLoop=1;jettySize=auto;html=1;exitX=0.5;exitY=0;exitDx=0;exitDy=0;exitPerimeter=0;entryX=0.5;entryY=0;entryDx=0;entryDy=0;fontFamily=Helvetica;fontSize=14;" parent="1" source="cHiCR8o6Nzo_LbySITsr-25" target="ec2KHH7Mb9NU5PzLNCFB-42" edge="1">
          <mxGeometry relative="1" as="geometry">
            <Array as="points">
              <mxPoint x="1029" y="470" />
              <mxPoint x="1029" y="470" />
            </Array>
          </mxGeometry>
        </mxCell>
        <mxCell id="cHiCR8o6Nzo_LbySITsr-25" value="Post Installation Service Req" style="strokeWidth=2;html=1;shape=mxgraph.flowchart.document2;whiteSpace=wrap;size=0.25;fontSize=13;align=center;" parent="1" vertex="1">
          <mxGeometry x="978.8600000000001" y="417" width="100" height="60" as="geometry" />
        </mxCell>
        <mxCell id="cHiCR8o6Nzo_LbySITsr-31" style="edgeStyle=orthogonalEdgeStyle;rounded=0;orthogonalLoop=1;jettySize=auto;html=1;exitX=1;exitY=0.5;exitDx=0;exitDy=0;entryX=0;entryY=0.5;entryDx=0;entryDy=0;fontFamily=Helvetica;fontSize=14;" parent="1" source="cHiCR8o6Nzo_LbySITsr-26" target="cHiCR8o6Nzo_LbySITsr-29" edge="1">
          <mxGeometry relative="1" as="geometry" />
        </mxCell>
        <mxCell id="cHiCR8o6Nzo_LbySITsr-26" value="Defining request specification for host" style="rounded=1;whiteSpace=wrap;html=1;absoluteArcSize=1;arcSize=14;strokeWidth=2;fillColor=#dae8fc;strokeColor=#6c8ebf;" parent="1" vertex="1">
          <mxGeometry x="480" y="635.5" width="99" height="73" as="geometry" />
        </mxCell>
        <mxCell id="cHiCR8o6Nzo_LbySITsr-32" style="edgeStyle=orthogonalEdgeStyle;rounded=0;orthogonalLoop=1;jettySize=auto;html=1;exitX=0.5;exitY=0;exitDx=0;exitDy=0;entryX=0.5;entryY=1;entryDx=0;entryDy=0;fontFamily=Helvetica;fontSize=14;" parent="1" source="cHiCR8o6Nzo_LbySITsr-29" target="cHiCR8o6Nzo_LbySITsr-20" edge="1">
          <mxGeometry relative="1" as="geometry" />
        </mxCell>
        <mxCell id="cHiCR8o6Nzo_LbySITsr-29" value="&lt;div&gt;CCL TO UPSIZE&lt;/div&gt;&lt;div&gt;LIST&lt;br&gt;&lt;/div&gt;" style="shape=parallelogram;html=1;strokeWidth=2;perimeter=parallelogramPerimeter;whiteSpace=wrap;rounded=1;arcSize=12;size=0.23;fillColor=#f5f5f5;strokeColor=#666666;fontColor=#333333;" parent="1" vertex="1">
          <mxGeometry x="660" y="642" width="126" height="60" as="geometry" />
        </mxCell>
        <mxCell id="cHiCR8o6Nzo_LbySITsr-47" style="edgeStyle=orthogonalEdgeStyle;rounded=0;orthogonalLoop=1;jettySize=auto;html=1;exitX=0.5;exitY=0;exitDx=0;exitDy=0;entryX=0;entryY=0.5;entryDx=0;entryDy=0;entryPerimeter=0;fontFamily=Helvetica;fontSize=14;" parent="1" source="cHiCR8o6Nzo_LbySITsr-40" target="cHiCR8o6Nzo_LbySITsr-45" edge="1">
          <mxGeometry relative="1" as="geometry" />
        </mxCell>
        <mxCell id="cHiCR8o6Nzo_LbySITsr-40" value="Updating SF Case and TT" style="rounded=1;whiteSpace=wrap;html=1;absoluteArcSize=1;arcSize=14;strokeWidth=2;fillColor=#d5e8d4;strokeColor=#82b366;" parent="1" vertex="1">
          <mxGeometry x="1345.5" y="479" width="99" height="73" as="geometry" />
        </mxCell>
        <mxCell id="cHiCR8o6Nzo_LbySITsr-43" value="&lt;div&gt;SF&lt;/div&gt;&lt;div&gt;Case&lt;br&gt;&lt;/div&gt;" style="strokeWidth=2;html=1;shape=mxgraph.flowchart.database;whiteSpace=wrap;fillColor=#f5f5f5;strokeColor=#666666;fontColor=#333333;" parent="1" vertex="1">
          <mxGeometry x="1417" y="314" width="60" height="70" as="geometry" />
        </mxCell>
        <mxCell id="cHiCR8o6Nzo_LbySITsr-44" value="&lt;div&gt;SF (Survey)&lt;br&gt;&lt;/div&gt;" style="strokeWidth=2;html=1;shape=mxgraph.flowchart.database;whiteSpace=wrap;fillColor=#f5f5f5;strokeColor=#666666;fontColor=#333333;" parent="1" vertex="1">
          <mxGeometry x="1514.29" y="314" width="62.71" height="70" as="geometry" />
        </mxCell>
        <mxCell id="cHiCR8o6Nzo_LbySITsr-45" value="" style="strokeWidth=2;html=1;shape=mxgraph.flowchart.annotation_2;align=left;labelPosition=right;pointerEvents=1;fontFamily=Helvetica;fontSize=14;rotation=-90;" parent="1" vertex="1">
          <mxGeometry x="1422" y="307" width="50" height="210" as="geometry" />
        </mxCell>
        <mxCell id="oAiHRDUOmV0Q1QNjDFF0-1" value="PARTNER OPERATIONS" style="text;html=1;strokeColor=none;fillColor=#dae8fc;align=center;verticalAlign=middle;whiteSpace=wrap;rounded=0;rotation=-90;fontSize=14;fontStyle=1" parent="1" vertex="1">
          <mxGeometry x="-1624" y="612" width="200" height="50" as="geometry" />
        </mxCell>
        <mxCell id="oAiHRDUOmV0Q1QNjDFF0-6" value="" style="strokeWidth=2;html=1;shape=mxgraph.flowchart.document2;whiteSpace=wrap;size=0.25;fontFamily=Helvetica;" parent="1" vertex="1">
          <mxGeometry x="-1069" y="110" width="28" height="21" as="geometry" />
        </mxCell>
        <mxCell id="oAiHRDUOmV0Q1QNjDFF0-8" value="" style="strokeWidth=2;html=1;shape=mxgraph.flowchart.database;whiteSpace=wrap;fontFamily=Helvetica;" parent="1" vertex="1">
          <mxGeometry x="-1070" y="140" width="30" height="30" as="geometry" />
        </mxCell>
        <mxCell id="oAiHRDUOmV0Q1QNjDFF0-9" value="" style="verticalLabelPosition=bottom;verticalAlign=top;html=1;shape=process;whiteSpace=wrap;rounded=1;size=0.14;arcSize=6;fontFamily=Helvetica;" parent="1" vertex="1">
          <mxGeometry x="-1069" y="180" width="30" height="20" as="geometry" />
        </mxCell>
        <mxCell id="oAiHRDUOmV0Q1QNjDFF0-11" value="" style="rounded=1;whiteSpace=wrap;html=1;absoluteArcSize=1;arcSize=14;strokeWidth=2;fontFamily=Helvetica;" parent="1" vertex="1">
          <mxGeometry x="-1069" y="210" width="30" height="20" as="geometry" />
        </mxCell>
        <mxCell id="oAiHRDUOmV0Q1QNjDFF0-16" value="&lt;ul&gt;&lt;li&gt;No SF changes needed&lt;/li&gt;&lt;/ul&gt;" style="text;html=1;strokeColor=#b85450;fillColor=none;align=left;verticalAlign=middle;whiteSpace=wrap;rounded=0;labelBackgroundColor=none;" parent="1" vertex="1">
          <mxGeometry x="-825" y="170" width="150" height="79.67" as="geometry" />
        </mxCell>
        <mxCell id="oAiHRDUOmV0Q1QNjDFF0-27" value="&lt;ul&gt;&lt;li&gt;Add specific fields in the &quot;&lt;b&gt;Post Activation Locker Change Section&lt;/b&gt;&quot;: &lt;br&gt;&lt;/li&gt;&lt;li&gt;Four additional check boxes needed, with 1) &quot;&lt;b&gt;upsize required&lt;/b&gt;&quot; 2) &quot;&lt;b&gt;downsize required&lt;/b&gt;&quot; 3) &quot;&lt;b&gt;moove outdoor required&lt;/b&gt;&quot; 4) &quot;&lt;b&gt;No change possible&lt;/b&gt;&quot;. &lt;br&gt;&lt;/li&gt;&lt;li&gt;A &lt;b&gt;text box &lt;/b&gt;to include notes (&lt;i&gt;e.g. Host willing to moove the locker outdoor, host willing to upsize by only +1 module, Host not willing to change anything&lt;/i&gt;).&lt;/li&gt;&lt;li&gt;When flagged the check box 1) or 2) or 3) and &lt;b&gt;SAVE&lt;/b&gt; -&amp;gt; an automatic report to be generated to Partner Ops (Post Installation Req) including the link to the primary Survey.&lt;/li&gt;&lt;/ul&gt;&lt;div&gt;&lt;br&gt;&lt;/div&gt;&lt;div&gt;&lt;br&gt;&lt;/div&gt;&lt;div&gt;&lt;br&gt;&lt;/div&gt;" style="text;html=1;strokeColor=#b85450;fillColor=none;align=left;verticalAlign=middle;whiteSpace=wrap;rounded=0;labelBackgroundColor=none;" parent="1" vertex="1">
          <mxGeometry x="-571" y="47" width="540" height="200" as="geometry" />
        </mxCell>
        <mxCell id="oAiHRDUOmV0Q1QNjDFF0-28" value="" style="shape=image;verticalLabelPosition=bottom;labelBackgroundColor=#ffffff;verticalAlign=top;aspect=fixed;imageAspect=0;image=data:image/png,iVBORw0KGgoAAAANSUhEUgAABNcAAACMCAYAAABf7U8DAAAfAklEQVR4Xu3dT4yV5b0H8N8MDIMIlWoVaiKd0DR2WdclaAls3HTXaEKIISY08W7vgosmJOqdRTddXBckhhhCgumuGzea3kpg3S5rjN5xSBQVWiuKwAwz93nf8+89/+ac8zJnzjkzn2lM43De58/nfTFPvuf3PO/UavoJPwQIECBAgAABAgQIECBAgAABAgQIDCwwJVwb2MwFBAgQIECAAAECBAgQIECAAAECBHKBqXv37q0uLS3FysoKEgIECBAgQIAAAQIECBAgQIAAAQJbSmB6ejpmZmbyf8r8TN26dcu20DJyriFAgAABAgQIECBAgAABAgQIENg0ArOzs6UCNuHapnkETIQAAQIECBAgQIAAAQIECBAgQKCsQFbBtmvXroEvF64NTOYCAgQIECBAgAABAgQIECBAgACBzSiwe/fugaclXBuYzAUECBAgQIAAAQIECBAgQIAAAQKbUUC4thnvqjkRIECAAAECBAgQIECAAAECBAhsiIBwbUOYdUKAAAECBAgQIECAAAECBAgQILAZBYRrm/GumhMBAgQIECBAgAABAgQIECBAgMCGCAjXNoRZJwQIECBAgAABAgQIECBAgAABAptRQLi2Ge+qOREgQIAAAQIECBAgQIAAAQIECGyIwMSEax++9ot4+d2iyTNx5oM/xUs/2xCniM/eid8dfTOefvvjeP3Zkn1++Fr84uWP1n/cw2q3Os3P3vld/Gf8If60btifxTu/+8+IPwz3/mXjPvrm3xo365kz8cGfXoqfxcb0X/IpcRkBAgQIECBAgAABAgQIECAwQQJDCdeuX78e33zzTfzyl79ck+If//hH7N27N/bv39+TLAvX3vr5B42AZz0CpayND47Gx32kZVn/H8QL8W709/l8QgO03xOg+IFhtdtlEJMXrn0Yr/3i5Xi3HqZVJ5bcXovXUzgqXBvoefNhAgQIECBAgAABAgQIECBAoKvAUMK1P/7xj/Hvf/87fvvb38avfvWrjp3//e9/jz//+c/x9NNPxwsvvNDzFrWFa3n10dF47/lC4NazlZYP9B1SZWHNB3H046PxQf7/r0dfxWt9tz/gwIfV7iYJ1/Iqx3h7jdBUuDbgE+fjBAgQIECAAAECBAgQIECAQBeBoYRrWeXaO++8k3f50ksvtVWm1YK12dnZ+P3vf59Xr/X66RauffJKtk2zErTVdwC2VCw1bw98Id5O4dhcy5bBF9ba7lkIs9rHkY28pf9U4fbfZz6K/ypsSay0XwvpXo+U1jVX4mWtZGN67/nK1sW8Mq+2D7axBbZ1q2Nru5XQby2PWrD0SnxyNFV35Z+vmHQLDNeuXFvbvpPN2x+/HP9X3BZaneszZ2pBabXyrPpQNO5NdeyvPB/vvfxm/K3TuPPtu+/F82tuGe7DoIt/ZT7Zlta1/FrGf+ZMfPRetgs225Ka/XSbX6+/Bf6cAAECBAgQIECAAAECBAgQGDeBoYRr2SS7BWzFYK1T8NYNqDXUqoRMT6dQKAtqUrD2dKNSqSmkysOWT+KVWnj04Yfx4bPPVoKkPivA8i2hR6tnrWXXvPXz6tldhSCrqf93YiGFis+2td8I1/I/ezkKoVYlpKqEhWloKZycS23kYUxrn2u1WwvWunnUg7dGoNar0qt7uFYN1nr11Wbzm0a4Fq1hWGtFYmb2Vvw8D8uq/UXt7LQOT0vb/en0RNUCwe4G3f17Xds6/tYxrzW/cfvPg/EQIECAAAECBAgQIECAAAECvQSGFq51CtiywC3bCppVrA0SrFXypdYXGlSDkdbwLJ9xYdtfW3hTIOknXGtrvxj2VIOvppBsrfYL4Vo15KqFafkLE/Iz/mvVTcVbV7yu2mfTWXGFP+/lkQdULS8TWLPvSkVdxxca9OproTVArM2pWIHWUmXWIRxrBKvRFEB2fLj7DtcGMWi9b2tc28mk6Lvm/Dbq7Ry9/rPgzwkQIECAAAECBAgQIECAAIF+BYYarhUDtrt37+ZjKhOsZdd13o5ZDZqaKsmyT7cESNU3fWbvjWza/tlHuNb2xsma7AvVSrm1wpw1K8yq20A/eSU/G6xtfoUxV7osbN3sVRG3psc6hmsd515oPwvX2sZSuz+VbbyNraBV2KbtmI3HuPK5LFzr8ZbRjoFf61+HPgy6+ve4tpNJa7jW/NrbfHBtDv3+DfY5AgQIECBAgAABAgQIECBAYKQCQw/Xstn1OoOtH4E1w7W2yrFuB9ZXzrpKezHzrZe9t4U2b9Wsj7O4pfMBwrW8Wi3fstryooS2LaMDVK61XVsLs2qhVB/BUssN6Vq51quvNcO1xrllH9XPWqvek46BXOs8uj01/bzooo+ArOmZGqByrdPzUPxdX5V1/fyN8BkCBAgQIECAAAECBAgQIEBgHAQ2JFyrBWzZ/+/fv7/UvLuGa93OGKtWhGUB2mvxeiVMa92K2atyrWsVVDF0qwR2xYDos3ReWs8z16oK+XluqSrt3TjaeLtlSwDTOF+u+tKBMmeu1Txaq/pylrW2pK6xLbSXffXg/nabwplrP2v1a/dsPDDdQtO2NDCFlumFB7Xqwtof15+FPsK1QsDX7N8rnGwdf+uZa2vNr9RfDRcRIECAAAECBAgQIECAAAECIxTYsHDtQefYPVzLWm5++2LaY9d44UDr9r6mwKVxXae3ha510H8euNQDq279t7bfUoGWDz07l+yjONP0dsvmN3A+k942+fSbn8TR+hs9e7W7hkfJcO1o4c2n+b2sG6/VV7d785v43+L2zto96tZmfUtsn+FaPsBmw/xX9XvfKyBby7/XtVnXWUVi9jbTHCrOvJ3ebvpW97eF9npb64P+3XE9AQIECBAgQIAAAQIECBAgMDyBiQnXhkegZQJDFuhVITnk7jVPgAABAgQIECBAgAABAgQIDE9AuDY8Wy0TSAIt5/wxIUCAAAECBAgQIECAAAECBDaVgHBtU91Okxm9QPt21E5bjkc/TiMgQIAAAQIECBAgQIAAAQIE1kNAuLYeitogQIAAAQIECBAgQIAAAQIECBDYkgLCtS15202aAAECBAgQIECAAAECBAgQIEBgPQSEa+uhqA0CBAgQIECAAAECBAgQIECAAIEtJzA9PR27du0aeN5Tt27dWh34KhcQIECAAAECBAgQIECAAAECBAgQ2EQCs7OzMTMzM/CMpu7du7e6tLQUKysrA1/sAgIECBAgQIAAAQIECBAgQIAAAQKTLJBVrGWhWplgLZv31Gr6mWQAYydAgAABAgQIECBAgAABAgQIECAwKgHh2qjk9UuAAAECBAgQIECAAAECBAgQIDDxAsK1ib+FJkCAAAECBAgQIECAAAECBAgQIDAqAeHaqOT1S4AAAQIECBAgQIAAAQIECBAgMPECwrWJv4UmQIAAAQIECBAgQIAAAQIECBAgMCoB4dqo5PVLgAABAgQIECBAgAABAgQIECAw8QLCtYm/hSZAgAABAgQIECBAgAABAgQIECAwKgHh2qjk9UuAAAECBAgQIECAAAECBAgQIDDxAsK1ib+FJkCAAAECBAgQIECAAAECBAgQIDAqAeHaqOT1S4AAAQIECBAgQIAAAQIECBAgMPECwrWJv4UmQIAAAQIECBAgQIAAAQIECBAgMCoB4dqo5PVLgAABAgQIECBAgAABAgQIECAw8QLCtYm/hSZAgAABAgQIECBAgAABAgQIECAwKgHh2qjk9UuAAAECBAgQIECAAAECBAgQIDDxAsK1ib+FJkCAAAECBAgQIECAAAECBAgQIDAqAeHaqOT1S4AAAQIECBAgQIAAAQIECBAgMPECJcK1qzF/7Gz8pTb1I2fj/dO/HluIq/OnYvH4uXjxqeIQszlciLnzLb+/dilOnVyIE++fjvWdUYtZHIyTrX2PraCBESBAgAABAuMtsLHrmra1VbZ+eiPi1XMvRtNyq0+0zmu1Pi/2MQIECBAgQIDAGAiUC9dOLcbxfAHVZTE3zIllC7iLB+Jcn4Fe13Dt1IVYmDvR1E722QsLc3Hi3BDCtbpZwslDvPMxd/b96DiNAec4TG5tEyBAgAABAuMukNZjG7muuTofpxaPx7nqN5fXLp2KN+LV+r8PqiVcG1TM5wkQIECAAIFxE1iHcO1yHK5Wel2dPxZn85K2I3G2w++OHFmIuayKbLF5UVZcVLW1UQ2iPk2tHjz5H6na7H+qVXOVPlIJWn99tlauzUccjguFqra0MJ1fjLmFhThQDdeyxeLJ81nP2ZSyCr0Dcany1WylEq7wTe1ih3E0bna26K0FkpXf5m0vnEhtZlOoVQJmczocl5v+vfMcx+1BMh4CBAgQIEBgVALZGmZU65praW10MV87ta3J8i8LI55bOB/5curgyThfrW4rrvfq68O0tmpfe6W9BFmYdzldn9aY67+7YFT3TL8ECBAgQIDAZhIoF661hD/5Fsrit5hpMTV/5VCcPnAxjl0+XN02Wqhy6xauFX9fbeN4+i704oFzjQqvYlXXIH12CNdOH75c/+b12qX5uHLoeMQblQXir1PbjbFn0zsWlw+nSrNoBIPZAjAfW+F3WeCWz71pH2p7uJZ5FduvBW55ewcK1Xmd5ti8x3UzPY/mQoAAAQIECAwsUAnXNm5dk62LqsduRHXNUlhT1ddCh66kSv2/xnP5URhZCFf9gjKt97qtD7utvY5dmKsHcwPzuIAAAQIECBAgMGSBcuFatQorrZLq2wCavmnMBp0qvc7PXWgKxuoLsS7h2qErhUqxahuVarH0Teen1Wq4Qrg2UJ+dwrW87SxMS9Vi+ZwOxZXqt68HasFZ7fC1esi1WK1CS5+dvxKHTr8YmUO9wq0+7uKpbZ0r1ypbKFJ7hTPsjmRbRQvhWqc5jvMZd0N+XjVPgAABAgQItAlUw7UNW9ekAVTXRa9WvwQ9vthhLXR8sekoj9qXktlni1+c1taH2Tqw6QvV2torfVlb3IbqASBAgAABAgQIjJvAA4VrT0VjK0AWRrWdt9FUnVX4xjL7lrN+8G2joi1bVHU9s6MWqhUWah3P+OjWZ8dwrbLVYD7banD4dKqOa8yna+VauiRfHKaz2RbmKueN9D5rpCVcy8Z4diF/qUFxIVmvhGsJ1x7kHJNxe+CMhwABAgQIEFhvgVq4tlHrmmz82domW0ClJVSq+O+4Dmw5Q7ZY8d+oUOtW0dZ518B6y2mPAAECBAgQILAeAg8YrmVrqxQU5aX6WdVXVmFWGVZegZWHVbXfHYyDB9O5G/l5ZcXfH4nGWRvF31faKH4T2txmVsl2PBb77rPIVViE5i9lqJ0bVwjX8qnVznPLJ9R4K2rbW0Xbx938ooLWt4U2zqTL/SoH1XVw6zbH9bj12iBAgAABAgQ2h8BGr2sqavk6Kf2vUlHfYS1UPOYi+0R9V0C39WGXtVfLCxQ2xz0zCwIECBAgQGAzCZQI18pP39ugytu5kgABAgQIECBAgAABAgQIECBAYPwEhGvjd0+MiAABAgQIECBAgAABAgQIECBAYEIENjRcmxATwyRAgAABAgQIECBAgAABAgQIECDQl4BwrS8mHyJAgAABAgQIECBAgAABAgQIECDQLiBc81QQIECAAAECBAgQIECAAAECBAgQKCkgXCsJ5zICBAgQIECAAAECBAgQIECAAAECwjXPAAECBAgQIECAAAECBAgQIECAAIGSAsK1knAuI0CAAAECBLauwMrKSkxPTcXS8nLcT/9s2749ZmZmti6ImRMgQIAAAQIERiQwDusy4dqIbr5uCRAgQIAAgckUWF1djakUrGU/3/zzX/HII3vi5s2bsffRx2J7Ctn8ECBAgAABAgQIbIzAuKzLhGsbc7/1QoAAAQIECGwigaWlpbjzw+3YMbsz/nnjRuzf/0R8/8Pd2L179yaapakQIECAAAECBMZfYBzWZcK18X9OjJAAAQIECBAYA4HaN6PLaRvoV9e/iL1798Y3334bjz72WArafog9e34U27ZtG4ORGgIBAgQIECBAYHMLjNu6TLi2uZ83syNAgAABAgTWUWB5KQVrX36Rh2jff/997Nu3L5bu309B24/XsRdNESBAgAABAgQI9BIYp3WZcK3X3fLnBAgQIECAwJYWqH0zen/5fnyZKtamp6fih1Sp9tBDD+UvMnjsJz9JLzeYjnQQ25Z2MnkCBAgQIECAwLAFxnVdJlwb9p3XPgECBAgQIDDZAukFBsupOu3G11/FVKymYO1O7Ny5M4Vs0/H440/ElK2gk31/jZ4AAQIECBCYHIExXZcJ1ybnETJSAgQIECBAYEQCN1OwlgVqX375ZezatSuvUnti/09TxZpqtRHdEt0SIECAAAECW1RgHNdlwrUt+jCaNgECBAgQINBb4P795fxstdn0VtBsIbf3kUfi21u3KsFaqlzzQ4AAAQIECBAgsDEC47wuE65tzDOgFwIECBAgQGACBZaXl+JfX38d21PV2q6HHo7lpbsx+9Cu2J7OWvNDgAABAgQIECCwcQLjvC4Trm3cc6AnAgQIECBAYMIEvk9VaktL9+J+OnNtZ3qBwcO796RT19Ku0Ambh+ESIECAAAECBCZdYJzXZcK1SX+6jJ8AAQIECBAYmsDdO3fi3tJSft7atm3T6ai17B/R2tDANUyAAAECBAgQ6CIwzusy4ZrHlgABAgQIECBAgAABAgQIECBAgEBJAeFaSTiXESBAgAABAgQIECBAgAABAgQIEBCueQYIECBAgAABAgQIECBAgAABAgQIlBQQrpWEcxkBAgQIECBAgAABAgQIECBAgAAB4ZpngAABAgQIECBAgAABAgQIECBAgEBJAeFaSTiXESBAgAABAgQIECBAgAABAgQIEBCueQYIECBAgAABAgQIECBAgAABAgQIlBToK1z7/PPPSzbvMgIECBAgQIDA1hV48skn133y1mXrTqpBAgQIECBAYAsIDGNdVmPrK1zbAsamSIAAAQIECBAgQIAAAQIECBAgQGBgAeHawGQuIECAAAECBAgQIECAAAECBAgQIFAREK55EggQIECAAAECBAgQIECAAAECBAiUFBCulYRzGQECBAgQIECAAAECBAgQIECAAAHhmmeAAAECBAgQIECAAAECBAgQIECAQEkB4VpJOJcRIECAAAECBAgQIECAAAECBAgQEK55BggQIECAAAECBAgQIECAAAECBAiUFBCulYRzGQECBAgQIECAAAECBAgQIECAAIFS4drV+WNx9i8VvIMnz8e5F59ql7x2KU5dPBDnTv96YOWr86di8fi56NRs3tjV+Ti1eLxzvy29dW7raswfuxBz51v6yMZ8ciFOvH86Bh/1WtPM+jsbVbJMLU629j2wkgsIECBAgAABAgQIECBAgAABAgRGLTB4uJaCrWOXD8f7vUKzcQ/XTl2IhbkTTeFfFsRdWJiLE+eGEK6dWozj516MPIbMQ7zzMXf2/ejI+AB2o36g9E+AAAECBAgQIECAAAECBAgQ2EoCg4drXaq7rl06laqxPs3tjmSh0YGsci3iuYXzkf/64Mk4Xw2XGpVvR+JstUqs+LsjRxZiLqtcW2yuUKtXoRV+33dbTcV1qZJsPuJwXChUyGW/W4y5hYU4UA3XinNKk0qB4oG4dOqNiFerFW+ZRf6vL8ZivZqvMafGg5TaLoZreb6WvBZOpDajUNWWXXs4Lter3CptpQ9UKwU7tb2VHldzJUCAAAECBAgQIECAAAECBAiMl8Dg4Vo2/mrl1ad54JQ2UBZCpnqGlX/mr/Fcvv3xWiOUKgZm6TPzVw6lIO5ioRqusGWzV7iWrqtvD+3VVodw7fThy/Xrr12ajyuHjke8cbESrrVU6GUh3uXDKTSMRuCXBWQXD5xr+l1mkc+paU9re7iWbW1trQCst5cHk9UttcUtsB3bHq8HymgIECBAgAABAgQIECBAgAABAltJoFy4VhWqVV+dn7tQCZmKB5W1bG2sBUfHFxsVbnkzKaBrvb5ThVr20dbfvxpv1KvlerbVKVzLK9GyMC1Vi+WVZYfiSv7vp+NALTirzakeci1Wq9DSZ+evxKHTL0ZqpG0czdtmO1euvRGvpnPjUnuF89gaVX+VcK2peq7q1XNL7lZ6gs2VAAECBAgQIECAAAECBAgQIDBCgQcK1/Lqqwtzcf7EQpxsPYdtjXCtEioV0q6mKq5ClVs0tl0+Fe0VbVm41ndbHcO1lJylvucvpztw+HQKB7O+e1Su5YV6qWItnc22MFd5qUL2723jaLqpLeFaNt+zySxV9R26Uq1+q7WbhZSFyrXebY/w6dE1AQIECBAgQIAAAQIECBAgQGCLCwweruXBUO29l423XhbfINpafZUZ17c85gFWOn+tcjxb5Xy2pt8djIMH01lt+blmxc8eifaz2LKisX7bKt7pyplrp/NSuyy0uxyH87PfCuFa9ieFt6JWzlyrlrG1nTvXaU4t/TW9LbRwdlqTZ6tH9rnjsdg2xy3+1Jo+AQIECBAgQIAAAQIECBAgQGBMBAYP18Zk4IZBgAABAgQIECBAgAABAgQIECBAYNQCwrVR3wH9EyBAgAABAgQIECBAgAABAgQITKyAcG1ib52BEyBAgAABAgQIECBAgAABAgQIjFpAuDbqO6B/AgQIECBAgAABAgQIECBAgACBiRUQrk3srTNwAgQIECBAgAABAgQIECBAgACBUQsI10Z9B/RPgAABAgQIECBAgAABAgQIECAwsQLCtYm9dQZOgAABAgQIECBAgAABAgQIECAwagHh2qjvgP4JECBAgACBiRNYXV2NqampWF5ejuWlpdi2fXvMzMxM3DwMmAABAgQIECBA4MEFhGsPbqgFAgQIECBAYIsKfPOvf8UjP9oTN27ejEcf+0ls27Zti0qYNgECBAgQIEBg6woI17buvTdzAgQIECBAoKRAVrH2ww+3Y8eO2bj59dexf/++uH3nTuzevadkiy4jQIAAAQIECBCYVAHh2qTeOeMmQIAAAQIENlSgthV05f79uH79i/jx3r3xzbffxo8ffTRuf/d9/OiRR2J72h7qhwABAgQIECBAYGsJCNe21v02WwIECBAgQKCEQC1Yu5+Cta+uX0/bP6fju+++i3379sXS/eXYu/fREq26hAABAgQIECBAYDMICNc2w100BwIECBAgQGBoAo2KtZX48ssvYjq9yOD27duxc+fO/EUGjz72WKpY8zKDod0ADRMgQIAAAQIExlxAuDbmN8jwCBAgQIAAgdEKZOHayspK3Pj6q5iK1XTW2p101tqO/G2hjz/+RGzzltDR3iC9EyBAgAABAgRGLCBcG/EN0D0BAgQIECAw/gI3b3wVO2Z2xI0bN/KKtZUUuO3b/1NnrI3/rTNCAgQIECBAgMDQBYRrQyfWAQECBAgQIDCpAtkZa3fu3klbQafzt4Lu2bO7ctbaT58UrE3qTTVuAgQIECBAgMA6CwjX1hlUcwQIECBAgMDmEVheXoqv0wsMdmdvAt02E0v37sRDD++OGVtBN89NNhMCBAgQIECAwAMKCNceENDlBAgQIECAwOYVuP3d9+lstdW4e/du7JjdGbsefnjzTtbMCBAgQIAAAQIESgkI10qxuYgAAQIECBDYCgI/pLeC3smCtR0z6Z9ZFWtb4aabIwECBAgQIEBgQAHh2oBgPk6AAAECBAgQIECAAAECBAgQIECgJiBc8ywQIECAAAECBAgQIECAAAECBAgQKCkgXCsJ5zICBAgQIECAAAECBAgQIECAAAECwjXPAAECBAgQIECAAAECBAgQIECAAIGSAsK1knAuI0CAAAECBAgQIECAAAECBAgQICBc8wwQIECAAAECBAgQIECAAAECBAgQKCnQV7j2+eefl2zeZQQIECBAgACBrSvw5JNPbt3JmzkBAgQIECBAYIsI9BWubREL0yRAgAABAgQIECBAgAABAgQIECAwkIBwbSAuHyZAgAABAgQIECBAgAABAgQIECDQEBCueRoIECBAgAABAgQIECBAgAABAgQIlBQQrpWEcxkBAgQIECBAgAABAgQIECBAgAAB4ZpngAABAgQIECBAgAABAgQIECBAgEBJAeFaSTiXESBAgAABAgQIECBAgAABAgQIEBCueQYIECBAgAABAgQIECBAgAABAgQIlBQQrpWEcxkBAgQIECBAgAABAgQIECBAgAAB4ZpngAABAgQIECBAgAABAgQIECBAgEBJAeFaSTiXESBAgAABAgQIECBAgAABAgQIEBCueQYIECBAgAABAgQIECBAgAABAgQIlBQQrpWEcxkBAgQIECBAgAABAgQIECBAgAAB4ZpngAABAgQIECBAgAABAgQIECBAgEBJAeFaSTiXESBAgAABAgQIECBAgAABAgQIEBCueQYIECBAgAABAgQIECBAgAABAgQIlBSYunfv3urS0lKsrKyUbMJlBAgQIECAAAECBAgQIECAAAECBCZTYHp6OmZmZvJ/yvxM3bp1a7XMha4hQIAAAQIECBAgQIAAAQIECBAgsFkEZmdnSwVswrXN8gSYBwECBAgQIECAAAECBAgQIECAQGmBrIJt165dA18vXBuYzAUECBAgQIAAAQIECBAgQIAAAQKbUWD37t0DT+v/ASGuLz7fma0kAAAAAElFTkSuQmCC;" parent="1" vertex="1">
          <mxGeometry x="-568.51" y="183.76999999999998" width="537.51" height="60.73" as="geometry" />
        </mxCell>
        <mxCell id="oAiHRDUOmV0Q1QNjDFF0-29" value="" style="shape=flexArrow;endArrow=classic;html=1;fontSize=12;entryX=0.567;entryY=1.023;entryDx=0;entryDy=0;entryPerimeter=0;labelBackgroundColor=#ff9999;fillColor=#ffcccc;strokeColor=none;" parent="1" target="oAiHRDUOmV0Q1QNjDFF0-27" edge="1">
          <mxGeometry width="50" height="50" relative="1" as="geometry">
            <mxPoint x="-243.49" y="274.5" as="sourcePoint" />
            <mxPoint x="-203.49" y="276.5" as="targetPoint" />
            <Array as="points">
              <mxPoint x="-253.49" y="264.5" />
            </Array>
          </mxGeometry>
        </mxCell>
        <mxCell id="oAiHRDUOmV0Q1QNjDFF0-31" value="&lt;ul&gt;&lt;li&gt;No specific SF change needed&lt;/li&gt;&lt;li&gt;&lt;b&gt;Nice to have&lt;/b&gt;: a more userfrienldly way to retrieve and read surveys (identification of the primary survey).&lt;br&gt;&lt;/li&gt;&lt;/ul&gt;&lt;div&gt;&lt;br&gt;&lt;/div&gt;&lt;div&gt;&lt;br&gt;&lt;/div&gt;" style="text;html=1;strokeColor=#ff6666;fillColor=none;align=left;verticalAlign=middle;whiteSpace=wrap;rounded=0;labelBackgroundColor=none;" parent="1" vertex="1">
          <mxGeometry x="81" y="111" width="270" height="120" as="geometry" />
        </mxCell>
        <mxCell id="oAiHRDUOmV0Q1QNjDFF0-34" value="&lt;div&gt;&lt;b&gt;&lt;br&gt;&lt;/b&gt;&lt;/div&gt;&lt;div&gt;&lt;b&gt;CASE 1: Not possible to upsize/move outdoor&lt;/b&gt;&lt;/div&gt;&lt;div&gt;&lt;ul&gt;&lt;li&gt;Flag the check box #4 which should grey the check boxes 1, 2 and 3;&lt;/li&gt;&lt;li&gt;Add a mandatory text box &quot;Reasons for not to proceed&quot;.&lt;/li&gt;&lt;/ul&gt;&lt;/div&gt;&lt;div&gt;&lt;b&gt;CASE 2: Cannot exclede the possibility to upsize/move outdoor&lt;/b&gt;&lt;/div&gt;&lt;div&gt;&lt;ul&gt;&lt;li&gt;Add a check box &quot;&lt;b&gt;Proceed with onsite assessment&lt;/b&gt;&quot;;&lt;/li&gt;&lt;li&gt;TechcOps have to &lt;b&gt;assign Post Installation Vendor&lt;/b&gt; (existing field to be renamed);&lt;/li&gt;&lt;li&gt;TechOps to &lt;b&gt;add in the notes the details of the request&lt;/b&gt; &lt;b&gt;to the vendor&lt;/b&gt; (e.g. Check if possible to upsize the locker by 1 module, if the pit is too close to the kiosk, as alternative check if possible to moove outdoor).&lt;/li&gt;&lt;li&gt;By pressing &quot;save&quot; -&amp;gt; SF should cut an automatic TT to the vendor and send a&lt;b&gt;&lt;u&gt;&lt;font color=&quot;#cc0000&quot;&gt; SF report to with the relevant fields&lt;/font&gt;&lt;/u&gt;&lt;/b&gt; for the vendor to act (post installation service req.).&lt;/li&gt;&lt;li style=&quot;line-height: 120%&quot;&gt;&lt;b&gt;Chevron&lt;/b&gt; have to move in a &lt;b&gt;new temporary stage just after &quot;activated&quot;&lt;/b&gt;, this is to be able to identify those cases with an open post-installation process.&lt;br&gt;&lt;/li&gt;&lt;/ul&gt;&lt;/div&gt;&lt;div&gt;&lt;br&gt;&lt;/div&gt;&lt;div&gt;&lt;br&gt;&lt;/div&gt;&lt;div&gt;&lt;br&gt;&lt;/div&gt;" style="text;html=1;strokeColor=#b85450;fillColor=none;align=left;verticalAlign=middle;whiteSpace=wrap;rounded=0;labelBackgroundColor=none;" parent="1" vertex="1">
          <mxGeometry x="502" y="35" width="820" height="250" as="geometry" />
        </mxCell>
        <mxCell id="oAiHRDUOmV0Q1QNjDFF0-35" value="" style="shape=flexArrow;endArrow=classic;html=1;fontSize=12;labelBackgroundColor=#ff9999;fillColor=#ffcccc;strokeColor=none;" parent="1" edge="1">
          <mxGeometry width="50" height="50" relative="1" as="geometry">
            <mxPoint x="730" y="314" as="sourcePoint" />
            <mxPoint x="730.29" y="236.5" as="targetPoint" />
          </mxGeometry>
        </mxCell>
        <mxCell id="oAiHRDUOmV0Q1QNjDFF0-36" value="&lt;ul&gt;&lt;li&gt;Tcorp: vendor performing work and assigning back to Partner Ops team&lt;br&gt;&lt;/li&gt;&lt;li&gt;Vendor Updating SF with the &quot;as build&quot; note and actual activity date.&lt;br&gt;&lt;/li&gt;&lt;li&gt;Vendir uploading the new survey in SF &lt;br&gt;&lt;/li&gt;&lt;li&gt;TechOps to flag a close out check box to bring the chevron back to active.&lt;br&gt;&lt;/li&gt;&lt;/ul&gt;&lt;div&gt;&lt;br&gt;&lt;/div&gt;&lt;div&gt;&lt;br&gt;&lt;/div&gt;" style="text;html=1;strokeColor=#b85450;fillColor=none;align=left;verticalAlign=middle;whiteSpace=wrap;rounded=0;labelBackgroundColor=none;" parent="1" vertex="1">
          <mxGeometry x="1322" y="80" width="300" height="151" as="geometry" />
        </mxCell>
        <mxCell id="oAiHRDUOmV0Q1QNjDFF0-37" value="" style="shape=flexArrow;endArrow=classic;html=1;fontSize=12;labelBackgroundColor=#ff9999;fillColor=#ffcccc;strokeColor=none;" parent="1" edge="1">
          <mxGeometry width="50" height="50" relative="1" as="geometry">
            <mxPoint x="1440" y="280" as="sourcePoint" />
            <mxPoint x="1440" y="200" as="targetPoint" />
          </mxGeometry>
        </mxCell>
        <mxCell id="oAiHRDUOmV0Q1QNjDFF0-38" value="&lt;div&gt;&lt;span style=&quot;&quot;&gt;Report&lt;/span&gt;&lt;/div&gt;" style="text;html=1;strokeColor=none;fillColor=none;align=center;verticalAlign=middle;whiteSpace=wrap;rounded=0;labelBackgroundColor=none;fontSize=12;" parent="1" vertex="1">
          <mxGeometry x="-1029" y="111" width="40" height="20" as="geometry" />
        </mxCell>
        <mxCell id="oAiHRDUOmV0Q1QNjDFF0-42" value="DB/System" style="text;html=1;strokeColor=none;fillColor=none;align=center;verticalAlign=middle;whiteSpace=wrap;rounded=0;labelBackgroundColor=none;fontSize=12;" parent="1" vertex="1">
          <mxGeometry x="-1019" y="145" width="40" height="20" as="geometry" />
        </mxCell>
        <mxCell id="oAiHRDUOmV0Q1QNjDFF0-44" value="Complex process" style="text;html=1;strokeColor=none;fillColor=none;align=center;verticalAlign=middle;whiteSpace=wrap;rounded=0;labelBackgroundColor=none;fontSize=12;" parent="1" vertex="1">
          <mxGeometry x="-1029" y="180" width="50" height="20" as="geometry" />
        </mxCell>
        <mxCell id="oAiHRDUOmV0Q1QNjDFF0-45" value="Task" style="text;html=1;strokeColor=none;fillColor=none;align=center;verticalAlign=middle;whiteSpace=wrap;rounded=0;labelBackgroundColor=none;fontSize=12;" parent="1" vertex="1">
          <mxGeometry x="-1039" y="210" width="50" height="20" as="geometry" />
        </mxCell>
        <mxCell id="oAiHRDUOmV0Q1QNjDFF0-46" value="" style="shape=flexArrow;endArrow=classic;html=1;fontSize=12;entryX=0.555;entryY=0.988;entryDx=0;entryDy=0;entryPerimeter=0;labelBackgroundColor=#ff9999;fillColor=#ffcccc;strokeColor=none;" parent="1" edge="1">
          <mxGeometry width="50" height="50" relative="1" as="geometry">
            <mxPoint x="-750" y="307" as="sourcePoint" />
            <mxPoint x="-749.8519499999998" y="257.00123999999994" as="targetPoint" />
          </mxGeometry>
        </mxCell>
        <mxCell id="oAiHRDUOmV0Q1QNjDFF0-49" value="" style="shape=flexArrow;endArrow=classic;html=1;fontSize=12;labelBackgroundColor=#ff9999;fillColor=#ffcccc;strokeColor=none;" parent="1" edge="1">
          <mxGeometry width="50" height="50" relative="1" as="geometry">
            <mxPoint x="215.41" y="289.63" as="sourcePoint" />
            <mxPoint x="215.41" y="230" as="targetPoint" />
          </mxGeometry>
        </mxCell>
        <mxCell id="dNjJzMc9oPsIZm55x09l-1" value="Create SIM Ticket" style="rounded=1;whiteSpace=wrap;html=1;absoluteArcSize=1;arcSize=14;strokeWidth=2;fillColor=#ffe6cc;strokeColor=#d79b00;" vertex="1" parent="1">
          <mxGeometry x="-162" y="804" width="87.5" height="60" as="geometry" />
        </mxCell>
        <mxCell id="dNjJzMc9oPsIZm55x09l-2" value="Form is filled out here&#xa;" style="text;strokeColor=none;fillColor=none;align=left;verticalAlign=middle;spacingLeft=4;spacingRight=4;overflow=hidden;points=[[0,0.5],[1,0.5]];portConstraint=eastwest;rotatable=0;" vertex="1" parent="1">
          <mxGeometry x="-203" y="300" width="126" height="30" as="geometry" />
        </mxCell>
        <mxCell id="dNjJzMc9oPsIZm55x09l-3" value="Are surveys always needed? For NA we have a picklist marking if it&#39;s needed or if the previous survey works" style="text;html=1;strokeColor=#CC0000;fillColor=none;align=center;verticalAlign=middle;whiteSpace=wrap;rounded=0;" vertex="1" parent="1">
          <mxGeometry x="23" y="559" width="118" height="101" as="geometry" />
        </mxCell>
        <mxCell id="dNjJzMc9oPsIZm55x09l-5" value="Assigned to post install vendor in SF and updates the ticket in SIM" style="text;html=1;strokeColor=none;fillColor=none;align=center;verticalAlign=middle;whiteSpace=wrap;rounded=0;" vertex="1" parent="1">
          <mxGeometry x="929" y="307" width="220" height="38" as="geometry" />
        </mxCell>
      </root>
    </mxGraphModel>
  </diagram>
</mxfile>
